<svg xmlns="http://www.w3.org/2000/svg" viewBox="0 0 192 192" fill="none"><rect width="192" height="192" fill="#04060a" rx="32"/><path d="M96 48c-26.5 0-48 18.5-48 48 0 29.5 21.5 64 48 64s48-34.5 48-64c0-29.5-21.5-48-48-48zm-10 24c5.5 0 10 4.5 10 10s-4.5 10-10 10-10-4.5-10-10 4.5-10 10-10zm20 40c-5.5 0-10-4.5-10-10s4.5-10 10-10 10 4.5 10 10-4.5 10-10 10z" fill="#3fe0d0" stroke="#3fe0d0" stroke-width="2"/><circle cx="96" cy="96" r="8" fill="#ff6a3d"/><path d="M96 36v20M96 140v20M36 96h20M140 96h20" stroke="#3fe0d0" stroke-width="3" stroke-linecap="round" opacity="0.4"/></svg>